<!-- Generated by IcoMoon.io -->
<svg version="1.1" xmlns="http://www.w3.org/2000/svg" width="125" height="32" viewBox="0 0 125 32">
<title>r2r-logo</title>
<path fill="#fff" d="M124.33 19.077c-0.918-3.144-3.671-4.777-6.423-3.93-0.445 0.151-1.155 0.393-1.244 0.756-0.267 1.058-1.154 1.542-1.569 2.419-0.622 1.3-1.243 2.6-1.894 3.839-0.562 1.088-1.184 2.116-1.865 3.144-0.178 0.272-0.681 0.544-0.947 0.453-0.237-0.091-0.503-0.605-0.503-0.937-0.059-0.967 0.030-1.905 0.060-2.872 0.029-1.209 0.118-2.419 0.059-3.628-0.030-0.786-0.414-1.481-1.243-1.723-0.889-0.242-1.747 0.091-2.221 0.907-0.651 1.149-1.273 2.358-1.954 3.507-0.444 0.786-0.888 1.602-1.391 2.358-0.326 0.484-0.74 1.209-1.362 0.786-0.266-0.181-0.207-1.119-0.118-1.663 0.207-1.179 0.622-2.328 0.799-3.507 0.296-1.814-0.622-3.174-2.309-3.537-0.444-0.091-0.918-0.151-1.391-0.181-0.77-0.030-1.095-0.272-0.829-1.209 0.414-1.572-0.799-2.66-2.279-2.207-1.302 0.423-2.309 1.965-2.013 3.386 0.237 1.179-0.030 2.177-0.444 3.235-0.326 0.816-0.651 1.663-0.799 2.539-0.178 1.058 0.266 1.814 1.066 2.086 0.77 0.272 1.599-0.060 2.102-0.937 0.355-0.635 0.622-1.33 0.947-1.995 0.237-0.453 0.326-1.209 1.066-0.907 0.681 0.272 0.474 0.907 0.415 1.451-0.030 0.242-0.148 0.484-0.178 0.726-0.266 1.119-0.562 2.207-0.74 3.325-0.385 2.419 0.533 4.353 2.398 4.958 1.687 0.544 3.167-0.091 4.47-1.209 0.651-0.544 1.302-1.119 1.954-1.693-0.059 0.332 0 0.846 0.089 1.33 0.355 2.267 1.302 3.567 2.931 3.809 1.569 0.242 2.782-0.514 3.759-1.753 0.74-0.937 1.362-1.935 2.043-2.902 0.030 0.060 0.089 0.121 0.118 0.181 1.391 3.688 5.683 3.991 7.933 0.786 1.924-2.721 2.486-5.865 1.51-9.19zM120.393 24.609c-0.267 0.665-0.859 1.028-1.569 0.907s-1.095-0.665-1.095-1.36c0-0.998 0.030-2.026 0.297-2.963 0.266-0.998 1.036-1.391 1.805-1.209 0.71 0.151 1.125 0.846 1.125 1.844 0 0.121 0 0.242 0 0.363 0.030 0 0.089 0.030 0.118 0.030-0.207 0.816-0.355 1.633-0.681 2.388zM72.941 18.653c-0.799-0.363-1.687 0-2.279 1.028-0.622 1.088-1.125 2.237-1.806 3.295-0.681 1.028-1.421 2.056-2.279 2.902-0.77 0.756-1.835 1.088-2.842 0.453-0.977-0.605-1.066-1.663-1.125-2.781 0.503-0.121 0.977-0.181 1.421-0.302 3.315-0.907 6.009-4.777 5.387-9.372-0.178-1.391-0.947-2.418-2.22-3.023-2.042-0.998-4.351-0.333-6.039 1.753-2.072 2.6-3.019 5.653-2.96 9.009 0.030 1.663-1.066 2.449-1.983 3.386-0.118 0.121-0.385 0.030-0.71 0.060 0.059-0.877 0.089-1.663 0.148-2.449 0.148-1.723 0.326-3.446 0.444-5.169 0.059-0.937-0.326-1.723-1.154-2.116-0.888-0.453-1.806-0.363-2.516 0.363-0.503 0.484-0.947 1.088-1.302 1.723-0.622 1.058-1.095 2.177-1.687 3.235-0.207 0.363-0.533 0.605-0.799 0.907-0.089-0.060-0.207-0.091-0.296-0.151 0-0.574 0-1.149 0-1.723 0-1.36 0.089-2.721-0.059-4.081-0.148-1.481-1.273-2.025-2.516-1.3-0.474 0.272-0.918 0.695-1.184 1.179-0.858 1.572-1.628 3.235-2.427 4.837-0.148 0.302-0.355 0.574-0.533 0.846-0.089-0.030-0.148-0.060-0.237-0.091 0-0.846 0.059-1.723 0-2.57-0.237-2.872-1.628-5.683-5.654-4.867-2.279 0.453-4.618 0.786-6.897 1.27-0.888 0.181-2.102 0.181-2.072 1.723 0 0.060-0.148 0.121-0.178 0.181-0.829 1.209-1.865 2.328-2.486 3.658-0.651 1.391-1.302 3.416-1.954 4.293-0.030 0.030-0.059 0.060-0.089 0.121-0.178 0.091-0.414 0.091-0.71 0 0.118-0.544 0.237-1.088 0.385-1.632 0.799-2.993 0.326-4.474-2.042-6.046 0.118-0.091 0.207-0.181 0.296-0.212 3.078-1.874 4.647-5.321 3.967-8.888-0.592-3.053-2.427-5.139-5.091-6.409-4.647-2.237-9.443-2.207-14.149-0.212-3.315 1.391-4.795 3.9-4.707 7.255 0.089 2.6 2.131 4.625 4.647 4.565 1.006-0.030 1.835-0.695 1.983-1.542 0.178-0.998-0.237-1.663-1.332-2.086-0.178-0.060-0.355-0.121-0.533-0.212-1.243-0.635-1.569-2.025-0.622-3.053 0.562-0.605 1.273-1.088 1.983-1.421 1.924-0.877 3.967-1.028 6.039-0.937 1.954 0.091 3.848 0.514 5.476 1.753 2.161 1.633 2.753 4.414 1.45 6.893-1.184 2.267-3.552 3.204-5.98 2.328 0.030-0.393 0-0.514 0.030-0.786 0.030-1.119-0.533-1.874-1.391-2.116-1.036-0.272-2.191 0.030-2.546 1.028-0.178 0.484-0.118 0.635-0.178 1.3-0.030 0.484-0.089 0.786-0.681 0.937-0.977 0.212-1.539 1.028-1.598 2.086-0.059 1.209 0.326 1.693 1.954 2.267-0.148 1.633-0.296 3.325-0.444 4.988-0.118 1.209-0.326 2.388-0.355 3.598-0.030 1.753 0.947 2.751 2.368 2.6 1.036-0.121 1.865-0.907 2.013-2.026 0.118-0.877 0.118-1.784 0.148-2.691 0.089-2.207 0.148-4.414 0.237-6.621 0.651-0.091 1.214-0.151 1.776-0.242 1.687-0.302 3.167 0.816 3.227 2.539 0.030 0.605-0.089 1.209-0.178 1.844-0.178 1.3-0.444 2.6-0.533 3.9-0.089 1.602 0.799 2.6 2.338 2.812 1.628 0.212 2.99-0.484 3.967-1.723 0.503-0.635 1.006-1.3 1.48-1.965 0.119 0.242 0.296 0.665 0.415 0.907 0.918 2.025 2.575 2.932 4.677 2.6 1.687-0.272 2.871-1.391 3.67-2.902 1.539-2.811 1.895-5.804 0.888-8.918 1.747-0.998 2.842-0.332 2.842 1.693 0 1.33-0.148 2.66-0.237 3.991-0.089 1.723-0.207 3.446-0.266 5.2-0.030 0.816 0.296 1.542 1.036 1.905 0.77 0.363 1.539 0.181 2.131-0.363 0.414-0.393 0.799-0.907 1.066-1.451 0.918-1.935 1.776-3.9 2.694-5.835 0.148-0.332 0.414-0.635 0.622-0.967 0.089 0.030 0.178 0.091 0.266 0.121 0 0.605 0 1.179 0 1.784 0.030 1.149-0.030 2.298 0.089 3.416 0.089 0.937 0.562 1.723 1.539 1.905s1.717-0.212 2.279-1.33c0.71-1.421 1.362-2.872 2.042-4.323 0.178-0.393 0.474-0.726 0.71-1.088 0.118 0.030 0.237 0.060 0.326 0.091 0.030 0.393 0.089 0.756 0.118 1.149 0.059 1.179 0.059 2.358 0.207 3.507 0.207 1.753 1.332 2.691 2.93 2.328 0.947-0.212 1.865-0.786 2.723-1.33 0.592-0.363 1.066-0.967 1.599-1.481 1.835 3.205 4.736 4.414 7.637 2.902 3.671-1.905 5.743-5.321 7.045-9.311 0.414-1.028-0.059-1.935-0.858-2.298zM64.387 14.844c0.178-0.212 0.622-0.333 0.858-0.212 0.207 0.091 0.414 0.544 0.414 0.816-0.030 1.542-0.651 2.812-1.835 3.718-0.266 0.181-0.622 0.242-1.066 0.393 0-1.905 0.444-3.446 1.628-4.716zM30.996 22.251c0 0.121-0.178 1.632-0.503 2.298-0.178 0.393-0.77 0.756-1.184 0.726-0.326 0-0.829-0.574-0.888-0.937-0.118-1.058-0.148-2.146 0-3.205 0.118-0.907 0.888-1.451 1.539-1.33 0.829 0.151 0.947 0.907 1.036 1.602 0.030 0.272 0 0.574 0 0.846zM94.166 27.239c-0.858 0.060-1.776 0.121-2.546-0.212-1.332-0.574-2.575-1.421-3.878-2.207 0.74-1.028 1.391-1.905 1.983-2.811 2.457-3.809 3.996-7.951 3.789-12.697-0.207-4.535-3.374-7.8-7.607-7.769 0 0-3.315 0.121-5.98 1.602-2.96 2.026-4.381 5.683-3.463 8.586 0.562 1.239 2.664 0.786 3.049 0.574 0.148-2.116 0.326-2.993 0.326-2.993 1.095-4.474 5.802-3.87 5.802-3.87 1.983 0.514 3.049 2.056 3.167 4.535 0.237 4.897-1.894 8.737-4.618 12.244-1.243-0.574-2.368-1.209-3.552-1.602-3.019-0.998-5.683-0.030-7.134 2.509-1.806 3.204-0.207 7.134 3.227 7.648 1.154 0.181 2.457 0.151 3.552-0.242 1.569-0.544 3.049-1.481 4.677-2.298 1.214 0.756 2.635 1.693 4.085 2.509 0.799 0.423 1.658 0.816 2.546 0.967 1.628 0.302 3.227 0.121 4.411-1.36 0.622-0.756 0.651-1.784 0.148-2.6-0.503-0.726-1.214-0.544-1.983-0.514zM77.056 27.118c-0.474 0.151-1.154-0.091-1.569-0.423-0.237-0.181-0.296-1.058-0.089-1.3 0.326-0.423 0.947-0.816 1.421-0.786 0.888 0.091 1.717 0.514 2.575 0.816 0 0.151 0 0.302 0.030 0.423-0.799 0.454-1.539 1.028-2.368 1.27z"></path>
<path fill="#ea2d8c" d="M108.433 13.937c-1.391 0.030-2.279-0.937-2.279-2.449 0-1.481 1.066-2.539 2.487-2.509 1.214 0.030 2.191 1.149 2.191 2.509-0.059 1.421-1.066 2.449-2.398 2.449z"></path>
</svg>
